<svg width="131" height="34" viewBox="0 0 131 34" fill="none" xmlns="http://www.w3.org/2000/svg">
<g filter="url(#filter0_d_304_365)">
<path d="M17.2303 15.8928C17.3761 15.3303 17.5324 14.7782 17.699 14.2365C17.8761 13.6845 18.0897 13.0699 18.3397 12.3928C18.5584 11.7886 18.824 11.0959 19.1365 10.3147C19.449 9.523 19.7772 8.72092 20.1209 7.90842C20.4751 7.09592 20.8188 6.34071 21.1522 5.64279C21.4855 4.94488 21.7876 4.38758 22.0584 3.97092C22.3917 3.4605 22.7511 3.08029 23.1365 2.83029C23.5324 2.58029 24.1105 2.45529 24.8709 2.45529H26.9178C27.4595 2.45529 27.9126 2.53863 28.2772 2.70529C28.6522 2.86154 28.9178 3.24175 29.074 3.84592C29.1886 4.29383 29.298 4.95008 29.4022 5.81467C29.5063 6.67925 29.5949 7.87717 29.6678 9.40842C29.7407 10.9397 29.798 12.9084 29.8397 15.3147C29.8813 17.7105 29.9022 20.674 29.9022 24.2053C29.9022 24.3928 29.8397 24.549 29.7147 24.674C29.5897 24.799 29.4386 24.8615 29.2615 24.8615H25.699C25.522 24.8615 25.3709 24.799 25.2459 24.674C25.1209 24.549 25.0584 24.3876 25.0584 24.1897C25.0584 21.4397 25.0584 19.1063 25.0584 17.1897C25.0584 15.273 25.0532 13.6845 25.0428 12.424C25.0324 11.1636 25.0167 10.1636 24.9959 9.42404C24.9855 8.67404 24.9647 8.09592 24.9334 7.68967H24.8397C24.2876 8.9605 23.699 10.3772 23.074 11.9397C22.449 13.4918 21.8397 15.0959 21.2459 16.7522C20.6522 18.398 20.1209 20.0074 19.6522 21.5803C19.5167 22.049 19.3449 22.3772 19.1365 22.5647C18.9386 22.7418 18.4803 22.8303 17.7615 22.8303H15.9647C15.3501 22.8303 14.9386 22.7522 14.7303 22.5959C14.5324 22.4397 14.3605 22.1011 14.2147 21.5803C13.8709 20.3928 13.4907 19.1376 13.074 17.8147C12.6574 16.4918 12.2251 15.1949 11.7772 13.924C11.3397 12.6428 10.9126 11.4657 10.4959 10.3928C10.0897 9.30946 9.72508 8.40842 9.40216 7.68967H9.30841C9.22508 8.91883 9.15216 10.4136 9.08966 12.174C9.02716 13.9345 8.97508 15.8459 8.93341 17.9084C8.90216 19.9709 8.88133 22.0751 8.87091 24.2209C8.87091 24.4084 8.80841 24.5647 8.68341 24.6897C8.55841 24.8043 8.40737 24.8615 8.23029 24.8615H5.02716C4.85008 24.8615 4.69904 24.799 4.57404 24.674C4.44904 24.549 4.38654 24.3876 4.38654 24.1897C4.39695 18.6376 4.50633 14.2053 4.71466 10.8928C4.93341 7.58029 5.16779 5.36154 5.41779 4.23654C5.58445 3.49696 5.87612 3.01779 6.29279 2.79904C6.71987 2.56988 7.20424 2.45529 7.74591 2.45529H10.2772C10.8501 2.45529 11.2667 2.55946 11.5272 2.76779C11.798 2.96571 12.1261 3.35633 12.5115 3.93967C12.7407 4.28342 13.0115 4.79904 13.324 5.48654C13.647 6.17404 13.9803 6.93967 14.324 7.78342C14.6678 8.61675 14.9907 9.44488 15.2928 10.2678C15.6053 11.0803 15.8605 11.7886 16.0584 12.3928C16.2667 13.0074 16.4595 13.6063 16.6365 14.1897C16.8136 14.7626 16.9699 15.3303 17.1053 15.8928H17.2303ZM38.0428 25.2522C36.5115 25.2522 35.2928 24.8251 34.3865 23.9709C33.4907 23.1063 33.0428 21.9188 33.0428 20.4084C33.0428 19.6272 33.1834 18.9032 33.4647 18.2365C33.7563 17.5595 34.2563 16.9657 34.9647 16.4553C35.6834 15.9345 36.6834 15.5178 37.9647 15.2053C39.2563 14.8928 40.9022 14.7105 42.9022 14.6584C42.9022 13.7105 42.6626 13.0282 42.1834 12.6115C41.7147 12.1949 41.0063 11.9865 40.0584 11.9865C39.2042 11.9865 38.5063 12.1324 37.9647 12.424C37.423 12.7157 37.0845 12.9136 36.949 13.0178C36.8032 13.1428 36.6261 13.1897 36.4178 13.1584C36.1365 13.1168 35.8345 13.0438 35.5115 12.9397C35.199 12.8355 34.8605 12.7157 34.4959 12.5803C34.4438 12.5595 34.3865 12.5282 34.324 12.4865C34.2615 12.4345 34.2251 12.3615 34.2147 12.2678C34.2147 12.2157 34.2199 12.1532 34.2303 12.0803C34.2407 11.997 34.2667 11.8511 34.3084 11.6428C34.3501 11.4345 34.4126 11.1793 34.4959 10.8772C34.5792 10.5647 34.6574 10.3251 34.7303 10.1584C34.824 9.98133 34.9803 9.81467 35.199 9.65842C35.3761 9.51258 35.9126 9.27821 36.8084 8.95529C37.7042 8.63238 39.0011 8.47092 40.699 8.47092C45.3761 8.47092 47.7147 10.747 47.7147 15.299V24.1428C47.7147 24.3407 47.6574 24.5126 47.5428 24.6584C47.4386 24.7938 47.2563 24.8615 46.9959 24.8615H44.6522C44.4855 24.8615 44.3345 24.8407 44.199 24.799C44.074 24.747 43.9542 24.6532 43.8397 24.5178L42.8709 23.2678H42.7615C42.2824 23.9657 41.6365 24.4709 40.824 24.7834C40.022 25.0959 39.0949 25.2522 38.0428 25.2522ZM39.7615 21.6272C40.7199 21.6272 41.4438 21.3824 41.9334 20.8928C42.423 20.4032 42.7355 19.898 42.8709 19.3772V17.6428C41.423 17.6428 40.3345 17.7574 39.6053 17.9865C38.8865 18.2053 38.4074 18.497 38.1678 18.8615C37.9282 19.2157 37.8084 19.6011 37.8084 20.0178C37.8084 20.622 37.9959 21.0438 38.3709 21.2834C38.7459 21.5126 39.2095 21.6272 39.7615 21.6272ZM67.2459 14.9084V24.0334C67.2459 24.3459 67.1782 24.5647 67.0428 24.6897C66.9178 24.8043 66.699 24.8615 66.3865 24.8615H63.1678C62.8553 24.8615 62.6313 24.8043 62.4959 24.6897C62.3709 24.5647 62.3084 24.3459 62.3084 24.0334V15.7209C62.3084 14.5855 62.0688 13.7574 61.5897 13.2365C61.1105 12.7157 60.4595 12.4553 59.6365 12.4553C58.8136 12.4553 58.1782 12.6324 57.7303 12.9865C57.2928 13.3407 56.9542 13.7886 56.7147 14.3303V24.0334C56.7147 24.3459 56.647 24.5647 56.5115 24.6897C56.3865 24.8043 56.1678 24.8615 55.8553 24.8615H52.6365C52.324 24.8615 52.1001 24.8043 51.9647 24.6897C51.8397 24.5647 51.7772 24.3459 51.7772 24.0334V10.9397C51.7772 10.6897 51.8292 10.497 51.9334 10.3615C52.1522 10.0699 52.4126 9.773 52.7147 9.47092C53.0272 9.16883 53.4074 8.84592 53.8553 8.50217C53.9907 8.398 54.1209 8.34592 54.2459 8.34592C54.3605 8.34592 54.4907 8.398 54.6365 8.50217C55.074 8.84592 55.449 9.17404 55.7615 9.48654C56.074 9.79904 56.3501 10.122 56.5897 10.4553H56.6678C56.8449 10.2261 57.1105 9.9605 57.4647 9.65842C57.8188 9.34592 58.3136 9.06988 58.949 8.83029C59.5949 8.59071 60.4178 8.47092 61.4178 8.47092C62.397 8.47092 63.3292 8.66883 64.2147 9.06467C65.1001 9.4605 65.824 10.1272 66.3865 11.0647C66.9595 12.0022 67.2459 13.2834 67.2459 14.9084ZM77.1209 25.2522C75.7355 25.2522 74.5532 24.9136 73.574 24.2365C72.6053 23.549 71.8657 22.6063 71.3553 21.4084C70.8553 20.2001 70.6053 18.8095 70.6053 17.2365C70.6053 15.1636 70.9699 13.4865 71.699 12.2053C72.4386 10.9136 73.4751 9.96571 74.8084 9.36154C76.1522 8.75738 77.7355 8.45529 79.5584 8.45529C80.1834 8.45529 80.699 8.48654 81.1053 8.54904C81.522 8.61154 81.8188 8.66883 81.9959 8.72092V2.89279C81.9959 2.64279 82.048 2.45008 82.1522 2.31467C82.5897 1.74175 83.2303 1.12196 84.074 0.455292C84.2199 0.351125 84.3501 0.299042 84.4647 0.299042C84.6001 0.299042 84.7303 0.351125 84.8553 0.455292C85.3032 0.799042 85.6782 1.12196 85.9803 1.42404C86.2928 1.72613 86.5584 2.023 86.7772 2.31467C86.8813 2.45008 86.9334 2.64279 86.9334 2.89279V24.1428C86.9334 24.3407 86.8657 24.5126 86.7303 24.6584C86.5949 24.7938 86.423 24.8615 86.2147 24.8615H83.8865C83.7199 24.8615 83.5688 24.8407 83.4334 24.799C83.3084 24.747 83.1886 24.6532 83.074 24.5178L82.1053 23.2678H81.9959C81.8605 23.4761 81.6157 23.7418 81.2615 24.0647C80.9178 24.3772 80.4126 24.6532 79.7459 24.8928C79.0897 25.1324 78.2147 25.2522 77.1209 25.2522ZM78.6365 21.2522C79.574 21.2522 80.3084 21.0751 80.8397 20.7209C81.3813 20.3668 81.7667 19.9188 81.9959 19.3772V12.8303C81.8292 12.7261 81.5532 12.6011 81.1678 12.4553C80.7824 12.3095 80.2407 12.2365 79.5428 12.2365C78.2511 12.2365 77.2824 12.6584 76.6365 13.5022C75.9907 14.3459 75.6678 15.4813 75.6678 16.9084C75.6678 18.3876 75.9386 19.4813 76.4803 20.1897C77.022 20.898 77.7407 21.2522 78.6365 21.2522ZM96.7303 25.2522C93.022 25.2522 91.1678 23.0074 91.1678 18.5178L91.1522 10.5803C91.1522 10.3303 91.2042 10.1376 91.3084 10.0022C91.7459 9.42925 92.3865 8.80946 93.2303 8.14279C93.3761 8.03863 93.5063 7.98654 93.6209 7.98654C93.7563 7.98654 93.8865 8.03863 94.0115 8.14279C94.4595 8.48654 94.8345 8.80946 95.1365 9.11154C95.449 9.41363 95.7147 9.7105 95.9334 10.0022C96.0376 10.1376 96.0897 10.3303 96.0897 10.5803V18.0803C96.0897 20.3407 96.9855 21.4709 98.7772 21.4709C99.6626 21.4709 100.371 21.1636 100.902 20.549C101.433 19.924 101.699 19.0803 101.699 18.0178V10.5803C101.699 10.3303 101.751 10.1376 101.855 10.0022C102.293 9.42925 102.933 8.80946 103.777 8.14279C103.923 8.03863 104.053 7.98654 104.168 7.98654C104.303 7.98654 104.433 8.03863 104.558 8.14279C105.006 8.48654 105.381 8.80946 105.683 9.11154C105.996 9.41363 106.262 9.7105 106.48 10.0022C106.584 10.1376 106.637 10.3303 106.637 10.5803V24.1428C106.637 24.3407 106.569 24.5126 106.433 24.6584C106.298 24.7938 106.126 24.8615 105.918 24.8615H103.574C103.407 24.8615 103.256 24.8407 103.121 24.799C102.996 24.747 102.876 24.6532 102.762 24.5178L101.793 23.2678H101.683C101.517 23.5074 101.256 23.7834 100.902 24.0959C100.558 24.4084 100.053 24.6793 99.3865 24.9084C98.7303 25.1376 97.8449 25.2522 96.7303 25.2522ZM116.449 25.2522C112.741 25.2522 110.887 23.0074 110.887 18.5178L110.871 10.5803C110.871 10.3303 110.923 10.1376 111.027 10.0022C111.465 9.42925 112.105 8.80946 112.949 8.14279C113.095 8.03863 113.225 7.98654 113.34 7.98654C113.475 7.98654 113.605 8.03863 113.73 8.14279C114.178 8.48654 114.553 8.80946 114.855 9.11154C115.168 9.41363 115.433 9.7105 115.652 10.0022C115.756 10.1376 115.808 10.3303 115.808 10.5803V18.0803C115.808 20.3407 116.704 21.4709 118.496 21.4709C119.381 21.4709 120.09 21.1636 120.621 20.549C121.152 19.924 121.418 19.0803 121.418 18.0178V10.5803C121.418 10.3303 121.47 10.1376 121.574 10.0022C122.012 9.42925 122.652 8.80946 123.496 8.14279C123.642 8.03863 123.772 7.98654 123.887 7.98654C124.022 7.98654 124.152 8.03863 124.277 8.14279C124.725 8.48654 125.1 8.80946 125.402 9.11154C125.715 9.41363 125.98 9.7105 126.199 10.0022C126.303 10.1376 126.355 10.3303 126.355 10.5803V24.1428C126.355 24.3407 126.288 24.5126 126.152 24.6584C126.017 24.7938 125.845 24.8615 125.637 24.8615H123.293C123.126 24.8615 122.975 24.8407 122.84 24.799C122.715 24.747 122.595 24.6532 122.48 24.5178L121.512 23.2678H121.402C121.235 23.5074 120.975 23.7834 120.621 24.0959C120.277 24.4084 119.772 24.6793 119.105 24.9084C118.449 25.1376 117.564 25.2522 116.449 25.2522Z" fill="white"/>
</g>
<defs>
<filter id="filter0_d_304_365" x="0.386536" y="0.299042" width="129.969" height="32.9531" filterUnits="userSpaceOnUse" color-interpolation-filters="sRGB">
<feFlood flood-opacity="0" result="BackgroundImageFix"/>
<feColorMatrix in="SourceAlpha" type="matrix" values="0 0 0 0 0 0 0 0 0 0 0 0 0 0 0 0 0 0 127 0" result="hardAlpha"/>
<feOffset dy="4"/>
<feGaussianBlur stdDeviation="2"/>
<feComposite in2="hardAlpha" operator="out"/>
<feColorMatrix type="matrix" values="0 0 0 0 0 0 0 0 0 0 0 0 0 0 0 0 0 0 0.25 0"/>
<feBlend mode="normal" in2="BackgroundImageFix" result="effect1_dropShadow_304_365"/>
<feBlend mode="normal" in="SourceGraphic" in2="effect1_dropShadow_304_365" result="shape"/>
</filter>
</defs>
</svg>
